<svg width="40" height="40" viewBox="0 0 40 40" fill="none" xmlns="http://www.w3.org/2000/svg">
<path d="M16.6666 6.66667C18.4348 6.66667 20.1304 7.36905 21.3807 8.61929C22.6309 9.86953 23.3333 11.5652 23.3333 13.3333C23.3333 15.1014 22.6309 16.7971 21.3807 18.0474C20.1304 19.2976 18.4348 20 16.6666 20C14.8985 20 13.2028 19.2976 11.9526 18.0474C10.7024 16.7971 9.99998 15.1014 9.99998 13.3333C9.99998 11.5652 10.7024 9.86953 11.9526 8.61929C13.2028 7.36905 14.8985 6.66667 16.6666 6.66667ZM16.6666 23.3333C24.0333 23.3333 30 26.3167 30 30V33.3333H3.33331V30C3.33331 26.3167 9.29998 23.3333 16.6666 23.3333ZM33.3333 20V11.6667H36.6666V21.6667H33.3333M33.3333 28.3333V25H36.6666V28.3333H33.3333Z" fill="#F24E1E"/>
</svg>
